<svg xmlns="http://www.w3.org/2000/svg" viewBox="0 0 512 512">
  <defs>
    <linearGradient id="brushGrad" x1="0%" y1="0%" x2="100%" y2="100%">
      <stop offset="0%" stop-color="#22d3ee" />
      <stop offset="100%" stop-color="#1d4ed8" />
    </linearGradient>
  </defs>

  <!-- Forma de Pincelada Orgânica -->
  <path fill="url(#brushGrad)" d="
    M160 100 
    C80 100 60 200 60 256 
    C60 380 140 440 256 440 
    C380 440 460 360 440 256 
    C420 160 340 80 256 80 
    C200 80 180 120 160 100 Z
  " opacity="0.2" />
  
  <path fill="url(#brushGrad)" d="
    M256 60
    C120 60 40 160 80 280
    C110 380 200 452 300 440
    C400 420 472 320 450 200
    C430 100 360 60 256 60 Z
    
    M256 160
    C265 160 275 170 275 180 V235 H330 
    C340 235 350 245 350 256 
    C350 265 340 275 330 275 H275 V330 
    C275 340 265 350 256 350 
    C245 350 235 340 235 330 V275 H180 
    C170 275 160 265 160 256 
    C160 245 170 235 180 235 H235 V180 
    C235 170 245 160 256 160 Z
  " fill-rule="evenodd" filter="url(#softGlow)" />
  
  <!-- Gotas de tinta/brilho -->
  <circle cx="150" cy="180" r="10" fill="#57BCDF" opacity="0.6" />
  <circle cx="380" cy="350" r="15" fill="#244CB0" opacity="0.4" />
</svg>